<svg id="visual" viewBox="0 0 960 300" width="960" height="300" xmlns="http://www.w3.org/2000/svg" xmlns:xlink="http://www.w3.org/1999/xlink" version="1.1"><rect x="0" y="0" width="960" height="300" fill="#202731"></rect><path d="M0 161L17.8 164.7C35.7 168.3 71.3 175.7 106.8 177.8C142.3 180 177.7 177 213.2 172.8C248.7 168.7 284.3 163.3 320 165C355.7 166.7 391.3 175.3 426.8 175C462.3 174.7 497.7 165.3 533.2 159C568.7 152.7 604.3 149.3 640 153.8C675.7 158.3 711.3 170.7 746.8 174C782.3 177.3 817.7 171.7 853.2 169.7C888.7 167.7 924.3 169.3 942.2 170.2L960 171L960 0L942.2 0C924.3 0 888.7 0 853.2 0C817.7 0 782.3 0 746.8 0C711.3 0 675.7 0 640 0C604.3 0 568.7 0 533.2 0C497.7 0 462.3 0 426.8 0C391.3 0 355.7 0 320 0C284.3 0 248.7 0 213.2 0C177.7 0 142.3 0 106.8 0C71.3 0 35.7 0 17.8 0L0 0Z" fill="#5003ab"></path><path d="M0 126L17.8 124.8C35.7 123.7 71.3 121.3 106.8 124.2C142.3 127 177.7 135 213.2 133C248.7 131 284.3 119 320 114.3C355.7 109.7 391.3 112.3 426.8 116.8C462.3 121.3 497.7 127.7 533.2 129C568.7 130.3 604.3 126.7 640 124.5C675.7 122.3 711.3 121.7 746.8 123C782.3 124.3 817.7 127.7 853.2 130.7C888.7 133.7 924.3 136.3 942.2 137.7L960 139L960 0L942.2 0C924.3 0 888.7 0 853.2 0C817.7 0 782.3 0 746.8 0C711.3 0 675.7 0 640 0C604.3 0 568.7 0 533.2 0C497.7 0 462.3 0 426.8 0C391.3 0 355.7 0 320 0C284.3 0 248.7 0 213.2 0C177.7 0 142.3 0 106.8 0C71.3 0 35.7 0 17.8 0L0 0Z" fill="#a80097"></path><path d="M0 69L17.8 73C35.7 77 71.3 85 106.8 84.8C142.3 84.7 177.7 76.3 213.2 74.2C248.7 72 284.3 76 320 79.3C355.7 82.7 391.3 85.3 426.8 88.7C462.3 92 497.7 96 533.2 93.2C568.7 90.3 604.3 80.7 640 76.8C675.7 73 711.3 75 746.8 75.2C782.3 75.3 817.7 73.7 853.2 75C888.7 76.3 924.3 80.7 942.2 82.8L960 85L960 0L942.2 0C924.3 0 888.7 0 853.2 0C817.7 0 782.3 0 746.8 0C711.3 0 675.7 0 640 0C604.3 0 568.7 0 533.2 0C497.7 0 462.3 0 426.8 0C391.3 0 355.7 0 320 0C284.3 0 248.7 0 213.2 0C177.7 0 142.3 0 106.8 0C71.3 0 35.7 0 17.8 0L0 0Z" fill="#db0082"></path><path d="M0 36L17.8 38.5C35.7 41 71.3 46 106.8 45.8C142.3 45.7 177.7 40.3 213.2 41.5C248.7 42.7 284.3 50.3 320 54.2C355.7 58 391.3 58 426.8 55.7C462.3 53.3 497.7 48.7 533.2 48.5C568.7 48.3 604.3 52.7 640 53.5C675.7 54.3 711.3 51.7 746.8 50.8C782.3 50 817.7 51 853.2 51.3C888.7 51.7 924.3 51.3 942.2 51.2L960 51L960 0L942.2 0C924.3 0 888.7 0 853.2 0C817.7 0 782.3 0 746.8 0C711.3 0 675.7 0 640 0C604.3 0 568.7 0 533.2 0C497.7 0 462.3 0 426.8 0C391.3 0 355.7 0 320 0C284.3 0 248.7 0 213.2 0C177.7 0 142.3 0 106.8 0C71.3 0 35.7 0 17.8 0L0 0Z" fill="#ff0066"></path></svg>