<svg id="visual" viewBox="0 0 960 300" width="960" height="300" xmlns="http://www.w3.org/2000/svg" xmlns:xlink="http://www.w3.org/1999/xlink" version="1.1"><rect x="0" y="0" width="960" height="300" fill="#202731"></rect><path d="M0 130L26.7 131.3C53.3 132.7 106.7 135.3 160 136.8C213.3 138.3 266.7 138.7 320 140C373.3 141.3 426.7 143.7 480 139.3C533.3 135 586.7 124 640 124C693.3 124 746.7 135 800 137.3C853.3 139.7 906.7 133.3 933.3 130.2L960 127L960 0L933.3 0C906.7 0 853.3 0 800 0C746.7 0 693.3 0 640 0C586.7 0 533.3 0 480 0C426.7 0 373.3 0 320 0C266.7 0 213.3 0 160 0C106.7 0 53.3 0 26.7 0L0 0Z" fill="#ff6f61"></path><path d="M0 98L26.7 95.5C53.3 93 106.7 88 160 88.2C213.3 88.3 266.7 93.7 320 97.2C373.3 100.7 426.7 102.3 480 104.3C533.3 106.3 586.7 108.7 640 106.8C693.3 105 746.7 99 800 94.5C853.3 90 906.7 87 933.3 85.5L960 84L960 0L933.3 0C906.7 0 853.3 0 800 0C746.7 0 693.3 0 640 0C586.7 0 533.3 0 480 0C426.7 0 373.3 0 320 0C266.7 0 213.3 0 160 0C106.7 0 53.3 0 26.7 0L0 0Z" fill="#f46051"></path><path d="M0 54L26.7 54C53.3 54 106.7 54 160 58C213.3 62 266.7 70 320 70.7C373.3 71.3 426.7 64.7 480 60.2C533.3 55.7 586.7 53.3 640 56.2C693.3 59 746.7 67 800 69.2C853.3 71.3 906.7 67.7 933.3 65.8L960 64L960 0L933.3 0C906.7 0 853.3 0 800 0C746.7 0 693.3 0 640 0C586.7 0 533.3 0 480 0C426.7 0 373.3 0 320 0C266.7 0 213.3 0 160 0C106.7 0 53.3 0 26.7 0L0 0Z" fill="#e85041"></path><path d="M0 37L26.7 35C53.3 33 106.7 29 160 29.8C213.3 30.7 266.7 36.3 320 38.3C373.3 40.3 426.7 38.7 480 38.7C533.3 38.7 586.7 40.3 640 38.3C693.3 36.3 746.7 30.7 800 27.2C853.3 23.7 906.7 22.3 933.3 21.7L960 21L960 0L933.3 0C906.7 0 853.3 0 800 0C746.7 0 693.3 0 640 0C586.7 0 533.3 0 480 0C426.7 0 373.3 0 320 0C266.7 0 213.3 0 160 0C106.7 0 53.3 0 26.7 0L0 0Z" fill="#dd3f31"></path></svg>